# xmcd
#
# Track frame offsets:
#	150
#	14505
#	25682
#	37210
#	48485
#	61321
#	72235
#	82104
#	94199
#	104111
#	114152
#	126500
#	137211
#	150341
#	160020
#	169696
#	182429
#	191335
#	206055
#	218716
#
# Disc length: 3070 seconds
#
# Revision: 1
# Processed by: cddbd v1.5.2PL0 Copyright (c) Steve Scherf et al.
# Submitted via: audiograbber 1.83.01
#
DISCID=190bfc14
DTITLE=Herbert Hunter - Northern Soul Legend
DYEAR=2011
DGENRE=Soul
TTITLE0=Hide Nor Hair
TTITLE1=Happy Go Lucky
TTITLE2=Diddlin' And Daddlin'
TTITLE3=La La La La
TTITLE4=I've Gotta Sit Down
TTITLE5=I Was Born To Love You
TTITLE6=Push Away From The Table
TTITLE7=Don't Pity Me
TTITLE8=I'm So Satisfied
TTITLE9=Isn't It Wonderful To Dream
TTITLE10=Make Me Know You Love Me
TTITLE11=Big Oak Tree
TTITLE12=So Much To Be Thankful For
TTITLE13=Love Has Taken Over Me
TTITLE14=The Sound Of A Crying Man
TTITLE15=Oh Baby
TTITLE16=You Can Make It If You Try
TTITLE17=Don't Pity Me (Unreleased Version)
TTITLE18=I've Gotta Sit Down (Unreleased Version)
TTITLE19=Somebody Somewhere
EXTD=
EXTT0=
EXTT1=
EXTT2=
EXTT3=
EXTT4=
EXTT5=
EXTT6=
EXTT7=
EXTT8=
EXTT9=
EXTT10=
EXTT11=
EXTT12=
EXTT13=
EXTT14=
EXTT15=
EXTT16=
EXTT17=
EXTT18=
EXTT19=
PLAYORDER=
